<svg viewBox="0 0 48 48" xml:space="preserve" xmlns="http://www.w3.org/2000/svg" enable-background="new 0 0 48 48"><circle cx="27.4" cy="27.4" r="20" fill="#f7ffa3" class="fill-c7d8f2"></circle><path d="M32.6 8.8c-.9-.3-3.3-1.1-6.2-2l3.7-5.2L24.4.5l-7.8 3.2c-2.8-.8-5.1-1.5-6.3-1.7C3.5.9.8 6 .8 6.1l-.2.3.2.3c.1.1 1.6 2.8 6.4 3.7l.4.1c-3.9 3.5-6.3 8.6-6.3 14 0 10.3 8.2 18.6 18.4 18.6 10.1 0 18.4-8.4 18.4-18.6 0-3.1-.7-6.1-2.2-8.8h.1l7.8-10.1-6.1-1.1-5.1 4.3zm-8.1-6.6 3 .5-2.6 3.7c-2-.6-4.1-1.3-6.1-1.9l5.7-2.3zm-13.3 8.9 1.2 2.2-.6-.1c-.3-.1-.6-.1-.8-.2-.4-.2-.8-.4-1.2-.7l-1.1-.8c.3-.2.5-.5.8-.7l1.7.3zm9 1.7 1.3 7.5-3.9-.7-4.5-8.1 7.1 1.3zM5.9 14.7c.2.2.5.4.6.6.1.1.2.2.3.2.5.5.6 1.4.2 3-.3 1.1-.8 3.2.4 4.5.3.3.6.5.9.7.4.2.7.4.8.7.2.4-.3 1.1-.6 1.6-.8 1.2-1 2.4-.3 3.2l.3.3c.1 0 .1.1.2.1.2.2 0 .8-.5 1.5l-2.4 3.1c-1.9-2.8-3-6.1-3-9.7 0-3.6 1.1-7 3.1-9.8zm.8 20.7L9.3 32c1.4-1.8.9-2.9.5-3.3-.1-.1-.2-.2-.4-.3-.1 0-.1-.1-.2-.1-.2-.2 0-.8.4-1.4.5-.8 1.2-1.8.8-3-.3-.7-.9-1.1-1.4-1.4-.3-.2-.5-.3-.6-.5-.6-.6-.4-1.9-.1-3.1.2-.8.8-3.2-.7-4.5-.1-.1-.2-.2-.4-.3-.2-.1-.5-.4-.5-.5v.1l-.2-.1c.3-.4.6-.7.9-1l1.3 1c.5.3 1 .7 1.6.9.4.1.8.2 1.1.3l1.7.3v-.2l3.4 6.1 2.7.5c-.3 1-.5 2.2-.2 3.3.2.6.4 1.2.7 1.7.4.7.7 1.3.6 2-.1.9-1.2 1.5-1.7 1.7l-.9.3c-.7.3-1.5.5-2.2 1.1-.8.6-1.4 1.5-1.9 2.4-.1.2-.2.3-.3.4-.1 0-.1.1-.3.1-.5.1-1.1 0-1.6 0-.6 0-1.1-.1-1.8 0-.9.1-1.8.6-2.4 1.3-.1.1-.2.2-.2.3 0-.3-.2-.5-.3-.7zm1.6 1.8c0-.2.1-.4.2-.6.3-.4.8-.6 1.4-.7h1.5c.6.1 1.3.1 2 0 .2 0 .6-.1.9-.3.4-.2.6-.6.7-.9.5-.8.9-1.5 1.6-2 .5-.4 1.1-.6 1.8-.8.3-.1.7-.2 1-.4 1.5-.6 2.4-1.6 2.6-2.8.2-1.1-.3-2-.8-2.9-.2-.5-.5-.9-.6-1.4-.2-.9 0-1.8.3-2.7l2.5.5-1.5-9.1L34 15.3c-1.2 0-3 .2-3.7 1.7-.1.1-.1.3-.2.4-.1.1-.1.2-.1.3-.1.2-.4.3-.7.5-.2.1-.4.2-.5.3-.5.3-.9.9-1.1 1.4v.5c-.2.2-.5.3-.9.5-.3.1-.5.3-.8.4-1 .6-1.8 1.7-1.4 2.9.2.5.5.8.8 1.1.2.2.4.4.4.6 0 .1-.1.3-.2.4-.1.2-.3.4-.4.7-.5 1.3.3 2.5.7 3.1.4.6.8 1.3 1.6 1.7.2.1.3.2.5.2.1.1.2.1.4.2.6.3.9 1.1 1.2 2l.1.4c.4 1.1 1 1.9 1.7 2.3-3 3-7.1 4.8-11.7 4.8-4.4-.1-8.4-1.8-11.4-4.5zm24.2-1.6c-.6 0-1.1-.8-1.4-1.6l-.1-.4c-.4-1-.8-2.1-1.8-2.7-.2-.1-.4-.2-.5-.3-.1 0-.2-.1-.4-.2-.4-.2-.8-.7-1.1-1.2-.4-.6-.8-1.3-.6-1.7 0-.1.1-.2.2-.4.2-.3.5-.7.5-1.2 0-.8-.5-1.3-.8-1.7-.2-.2-.4-.4-.5-.6-.1-.3.3-.9.7-1.1l.6-.3c.5-.3 1.1-.6 1.6-1.1l.4-.4-.3-.5c0-.1.1-.3.4-.5.1-.1.3-.1.4-.2.5-.2 1-.5 1.3-1l.3-.6c0-.1.1-.2.1-.3.4-.7 1.4-1 3.2-.8v-.1c1.2 2.4 1.8 5 1.8 7.7 0 4.4-1.5 8.2-4 11.2zm8.6-28.9-5.7 7.4L7.5 8.9C4.3 8.4 2.9 7 2.3 6.4c.4-.6 1.2-1.6 2.7-2.2.4.7 1.3 1.6 2.8 2.2L8.3 5c-1-.4-1.5-.9-1.9-1.4 1-.2 2.2-.3 3.7 0 3.8.7 22.3 6.7 22.5 6.8l.4.1 5.1-4.4 3 .6z" fill="#384a66" class="fill-384a66"></path></svg>